<svg xmlns="http://www.w3.org/2000/svg" width="16" height="16" fill="none"><g clip-path="url(#a)"><mask id="b" width="16" height="16" x="0" y="0" maskUnits="userSpaceOnUse" style="mask-type:alpha"><rect width="16" height="16" fill="#6364FF" rx="4"/></mask><g mask="url(#b)"><path fill="#0A7AFF" d="M0 4a4 4 0 0 1 4-4h8a4 4 0 0 1 4 4v8a4 4 0 0 1-4 4H4a4 4 0 0 1-4-4V4Z"/></g><path fill="#fff" d="M5.2 4.5C6.3 5.3 7.5 7 8 7.8c.5-.9 1.7-2.5 2.8-3.3.9-.5 2.2-1 2.2.4l-.3 2.7C12.4 8.8 11.1 9 10 8.9c2 .3 2.5 1.3 1.4 2.4-2 2-3-.5-3.2-1.2L8 10v.1c-.3.7-1.2 3.1-3.3 1.2-1.1-1-.6-2.1 1.4-2.4-1.2.1-2.5-.1-2.8-1.3L3 4.9c0-1.4 1.3-1 2.2-.4Z"/><path fill="#000" fill-opacity=".2" fill-rule="evenodd" d="M12 1H4a3 3 0 0 0-3 3v8a3 3 0 0 0 3 3h8a3 3 0 0 0 3-3V4a3 3 0 0 0-3-3ZM4 0a4 4 0 0 0-4 4v8a4 4 0 0 0 4 4h8a4 4 0 0 0 4-4V4a4 4 0 0 0-4-4H4Z" clip-rule="evenodd"/></g><defs><clipPath id="a"><path fill="#fff" d="M0 0h16v16H0z"/></clipPath></defs></svg>