<svg xmlns="http://www.w3.org/2000/svg" width="16" height="16" fill="none"><g clip-path="url(#a)"><mask id="b" width="16" height="16" x="0" y="0" maskUnits="userSpaceOnUse" style="mask-type:alpha"><rect width="15" height="15" x=".5" y=".5" fill="#FFF9F2" rx="3.5"/><rect width="15" height="15" x=".5" y=".5" stroke="#C5C5C5" rx="3.5"/></mask><g mask="url(#b)"><path fill="#FFF9F2" d="M0 4a4 4 0 0 1 4-4h8a4 4 0 0 1 4 4v8a4 4 0 0 1-4 4H4a4 4 0 0 1-4-4V4Z"/><path fill="#83254F" d="M10.2 19.4a14 14 0 0 1-4.9.6 7.4 7.4 0 0 1-3.9-1.3c-1-.8-1.8-2-2.2-3.5-.4-1.5-.3-3 .3-4.2a8.3 8.3 0 0 1 2.8-3.2c1.3-1 2.8-1.7 4.5-2.2a14 14 0 0 1 4.9-.6 8 8 0 0 1 3.9 1.3c1 .8 1.8 2 2.2 3.5.4 1.5.3 2.9-.3 4.2-1.5 3-4.3 4.5-7.3 5.4Z"/></g><path fill="#000" fill-opacity=".2" fill-rule="evenodd" d="M12 1H4a3 3 0 0 0-3 3v8a3 3 0 0 0 3 3h8a3 3 0 0 0 3-3V4a3 3 0 0 0-3-3ZM4 0a4 4 0 0 0-4 4v8a4 4 0 0 0 4 4h8a4 4 0 0 0 4-4V4a4 4 0 0 0-4-4H4Z" clip-rule="evenodd"/></g><defs><clipPath id="a"><path fill="#fff" d="M0 0h16v16H0z"/></clipPath></defs></svg>