<svg xmlns="http://www.w3.org/2000/svg" width="16" height="16" fill="none"><g clip-path="url(#a)"><mask id="b" width="16" height="16" x="0" y="0" maskUnits="userSpaceOnUse" style="mask-type:alpha"><rect width="16" height="16" fill="#6364FF" rx="4"/></mask><g mask="url(#b)"><path fill="#6364FF" d="M0 4a4 4 0 0 1 4-4h8a4 4 0 0 1 4 4v8a4 4 0 0 1-4 4H4a4 4 0 0 1-4-4V4Z"/></g><path fill="#000" fill-opacity=".2" fill-rule="evenodd" d="M12 1H4a3 3 0 0 0-3 3v8a3 3 0 0 0 3 3h8a3 3 0 0 0 3-3V4a3 3 0 0 0-3-3ZM4 0a4 4 0 0 0-4 4v8a4 4 0 0 0 4 4h8a4 4 0 0 0 4-4V4a4 4 0 0 0-4-4H4Z" clip-rule="evenodd"/><g clip-path="url(#c)"><path fill="#fff" d="M13 5c-.2-1.2-1.2-2.2-2.4-2.3-.2 0-1-.2-2.7-.2-1.7 0-2.1.1-2.3.2A3 3 0 0 0 3 4.8v4.4c0 .6.2 1.1.3 1.7.2 1 1.2 1.8 2.2 2.2A5.8 5.8 0 0 0 9 13c.3 0 .6-.1.8-.3V12l-2 .2c-1.3 0-1.6-.6-1.7-.8a2.6 2.6 0 0 1-.1-.7c.6.2 1.3.2 2 .2h.5c.7 0 1.4 0 2.1-.2 1.1-.2 2.2-.8 2.3-2.5V4.9Zm-1.7 4h-1.1V6.4c0-.6-.3-1-.8-1s-.8.4-.8 1.1V8h-1V6.4c0-.7-.4-1-.9-1s-.7.3-.7.9V9H4.8V6c0-.5.2-1 .5-1.3.3-.4.7-.5 1.2-.5.6 0 1 .2 1.3.6l.3.5.3-.5c.2-.4.7-.6 1.3-.6.5 0 .9.1 1.2.5.3.3.4.8.4 1.4V9Z"/></g></g><defs><clipPath id="a"><path fill="#fff" d="M0 0h16v16H0z"/></clipPath><clipPath id="c"><path fill="#fff" d="M3 2.5h10v11H3z"/></clipPath></defs></svg>