<svg width="16" height="16" fill="none" xmlns="http://www.w3.org/2000/svg"><g clip-path="url(#a)"><mask id="b" style="mask-type:alpha" maskUnits="userSpaceOnUse" x="0" y="0" width="16" height="16"><rect width="16" height="16" rx="4" fill="#6364FF"/></mask><g mask="url(#b)"><path d="M0 4a4 4 0 0 1 4-4h8a4 4 0 0 1 4 4v8a4 4 0 0 1-4 4H4a4 4 0 0 1-4-4V4Z" fill="#F4A30D"/></g><path fill-rule="evenodd" clip-rule="evenodd" d="M12 1H4a3 3 0 0 0-3 3v8a3 3 0 0 0 3 3h8a3 3 0 0 0 3-3V4a3 3 0 0 0-3-3ZM4 0a4 4 0 0 0-4 4v8a4 4 0 0 0 4 4h8a4 4 0 0 0 4-4V4a4 4 0 0 0-4-4H4Z" fill="#000" fill-opacity=".2"/><path d="M12.47 12.5a.66.66 0 0 1-1.31 0A7.66 7.66 0 0 0 3.5 4.84a.66.66 0 1 1 0-1.3 8.98 8.98 0 0 1 8.97 8.96ZM3.5 7.47a.66.66 0 1 0 0 1.31 3.72 3.72 0 0 1 3.72 3.72.66.66 0 1 0 1.31 0A5.04 5.04 0 0 0 3.5 7.47Zm.22 3.94a.88.88 0 1 0 0 1.75.88.88 0 0 0 0-1.75Z" fill="#fff"/></g><defs><clipPath id="a"><path fill="#fff" d="M0 0h16v16H0z"/></clipPath></defs></svg>